<?xml version="1.0" standalone="no"?>
<!DOCTYPE svg PUBLIC "-//W3C//DTD SVG 20010904//EN"
 "http://www.w3.org/TR/2001/REC-SVG-20010904/DTD/svg10.dtd">
<svg version="1.0" xmlns="http://www.w3.org/2000/svg"
 width="640.000000pt" height="640.000000pt" viewBox="0 0 640.000000 640.000000"
 preserveAspectRatio="xMidYMid meet">
<metadata>
Created by potrace 1.11, written by Peter Selinger 2001-2013
</metadata>
<g transform="translate(0.000000,640.000000) scale(0.100000,-0.100000)"
fill="#000000" stroke="none">
<path d="M3087 5213 c-50 -17 -122 -78 -169 -143 -119 -164 -61 -422 119 -534
24 -14 49 -26 57 -26 8 0 17 -3 20 -8 4 -7 -37 -158 -139 -507 -26 -88 -51
-173 -55 -190 -4 -16 -34 -118 -65 -225 -31 -107 -58 -202 -60 -210 -18 -72
-62 -203 -80 -235 -13 -22 -36 -48 -53 -58 -28 -17 -33 -17 -61 -3 -28 15 -63
55 -87 102 -7 12 -128 172 -270 355 -142 184 -278 361 -303 394 -25 33 -56 71
-68 85 -13 14 -23 28 -23 32 0 4 22 29 48 55 138 137 167 322 73 464 -74 111
-169 176 -267 183 -52 3 -131 -16 -173 -42 -45 -27 -129 -124 -158 -181 -24
-49 -28 -66 -27 -146 0 -76 5 -99 27 -145 51 -107 154 -199 240 -215 43 -8 44
-11 33 -105 -8 -65 -13 -111 -21 -205 -4 -38 -8 -83 -10 -100 -2 -16 -7 -57
-10 -90 -3 -33 -7 -78 -10 -100 -2 -22 -7 -67 -10 -100 -3 -33 -8 -76 -10 -95
-2 -19 -7 -64 -10 -100 -21 -266 -81 -332 -213 -237 -75 54 -176 123 -187 128
-6 2 -55 34 -110 70 -55 36 -180 118 -277 182 -98 64 -178 118 -178 121 0 3
10 22 22 43 35 58 48 102 55 178 9 117 -33 222 -122 304 -170 157 -413 101
-523 -119 -24 -50 -27 -65 -27 -160 1 -95 4 -111 30 -165 51 -107 151 -184
256 -200 24 -4 46 -7 49 -8 17 -4 98 17 132 34 22 11 41 19 43 17 2 -3 74
-140 196 -373 43 -82 92 -184 109 -225 17 -41 37 -88 45 -105 19 -42 64 -188
82 -265 22 -97 23 -99 35 -181 l12 -75 2198 0 c1986 0 2198 1 2202 15 3 9 7
32 10 51 4 19 8 47 10 63 3 15 7 35 10 45 3 9 7 28 10 42 10 62 70 253 101
325 7 17 25 59 40 95 34 78 286 573 300 588 2 2 23 -7 47 -20 64 -34 183 -33
258 3 237 113 288 423 99 607 -120 116 -273 132 -405 42 -77 -54 -136 -143
-152 -230 -18 -101 3 -213 54 -289 28 -42 47 -24 -183 -174 -402 -262 -520
-340 -558 -368 -112 -82 -182 -25 -200 166 -3 33 -7 80 -10 105 -3 25 -7 72
-10 105 -10 111 -15 160 -19 200 -3 22 -7 69 -10 105 -6 62 -12 136 -21 225
-2 22 -7 76 -10 120 -4 44 -7 84 -8 88 -1 5 16 15 38 21 107 33 201 126 241
238 16 45 22 162 11 211 -10 48 -46 113 -89 162 -135 153 -327 159 -468 13
-68 -70 -100 -133 -109 -218 -14 -129 30 -244 126 -329 l52 -47 -22 -24 c-12
-14 -58 -72 -102 -130 -44 -58 -84 -110 -90 -116 -5 -7 -35 -44 -65 -84 -30
-40 -104 -136 -165 -214 -60 -78 -121 -157 -135 -176 -14 -18 -30 -38 -35 -44
-19 -20 -75 -104 -75 -113 0 -14 -63 -70 -86 -77 -40 -12 -95 52 -122 144 -6
19 -29 98 -52 175 -23 77 -45 154 -50 170 -4 17 -27 93 -50 170 -84 283 -101
340 -105 356 -2 9 -20 72 -40 139 -20 67 -38 130 -40 139 -2 9 -13 44 -23 77
l-19 62 49 23 c224 105 283 406 115 594 -93 105 -221 141 -350 98z"/>
<path d="M1019 1820 l-24 -5 0 -327 0 -328 2197 0 c2086 0 2198 1 2199 18 3
97 0 634 -4 638 -7 7 -4334 11 -4368 4z"/>
</g>
</svg>
